<svg id="Capa_1" enable-background="new 0 0 512 512" height="512" viewBox="0 0 512 512" width="512" xmlns="http://www.w3.org/2000/svg"><g><path d="m211.571 444.829h-192.772c-10.382 0-18.799-8.417-18.799-18.799v-340.06c0-10.382 8.417-18.799 18.799-18.799h192.772c10.382 0 18.799 8.417 18.799 18.799v340.06c.001 10.382-8.416 18.799-18.799 18.799z" fill="#407093"/><path d="m211.571 67.171h-18.534c10.382 0 18.799 8.417 18.799 18.799v340.06c0 10.382-8.417 18.799-18.799 18.799h18.534c10.382 0 18.799-8.417 18.799-18.799v-340.06c.001-10.382-8.416-18.799-18.799-18.799z" fill="#365e7d"/><path d="m191.656 98.076h-24.238c-4.567 0-8.785 2.447-11.052 6.412l-3.954 6.915c-3.188 5.576-9.119 9.017-15.543 9.017h-43.367c-6.423 0-12.354-3.441-15.543-9.017l-3.954-6.915c-2.267-3.965-6.485-6.412-11.052-6.412h-24.238c-4.313 0-7.809 3.496-7.809 7.809v300.228c0 4.313 3.496 7.809 7.809 7.809h152.942c4.313 0 7.809-3.496 7.809-7.809v-300.227c-.001-4.313-3.497-7.81-7.81-7.81z" fill="#d3effb"/><g><path d="m191.656 98.076h-20.169c4.313 0 7.809 3.496 7.809 7.809v300.228c0 4.313-3.496 7.809-7.809 7.809h20.169c4.313 0 7.809-3.496 7.809-7.809v-300.227c0-4.313-3.496-7.81-7.809-7.81z" fill="#b1e4f9"/></g><g><path d="m119.186 101.513h-8.001c-4.268 0-7.726-3.459-7.726-7.726 0-4.268 3.459-7.726 7.726-7.726h8.001c4.268 0 7.726 3.459 7.726 7.726s-3.459 7.726-7.726 7.726z" fill="#365e7d"/></g><g><g><path d="m113.372 308.151c-10.162 0-16.395-.939-26.618-7.627-3.571-2.336-4.572-7.125-2.236-10.695 2.336-3.572 7.124-4.571 10.695-2.236 7.139 4.669 10.238 5.167 19.354 5.102 9.945-.066 15.715-7.481 16.869-14.342.454-2.701 1.106-11.808-9.574-15.583-13.835-4.89-21.814-8.715-27.538-13.204-6.673-5.234-9.716-14.328-7.944-23.732 1.935-10.266 9.075-18.431 18.635-21.311 18.087-5.445 32.461.554 33.063.812 3.923 1.68 5.741 6.221 4.061 10.144-1.673 3.904-6.179 5.728-10.094 4.082-.297-.118-10.191-3.974-22.574-.241-4.799 1.445-7.23 5.791-7.906 9.375-.689 3.658.211 7.077 2.295 8.711 5.343 4.19 14.702 7.808 23.152 10.795 14.429 5.101 22.147 17.942 19.663 32.714-2.26 13.442-13.979 27.112-32.005 27.232-.44.003-.873.004-1.298.004z" fill="#78c2a4"/></g><g><path d="m114.618 321.212c-4.268 0-7.726-3.459-7.726-7.726v-114.972c0-4.268 3.459-7.726 7.726-7.726 4.268 0 7.726 3.459 7.726 7.726v114.972c.001 4.268-3.458 7.726-7.726 7.726z" fill="#78c2a4"/></g></g><path d="m493.201 444.829h-192.772c-10.382 0-18.799-8.417-18.799-18.799v-340.06c0-10.382 8.417-18.799 18.799-18.799h192.772c10.382 0 18.799 8.417 18.799 18.799v340.06c0 10.382-8.417 18.799-18.799 18.799z" fill="#407093"/><path d="m493.201 67.171h-18.534c10.382 0 18.799 8.417 18.799 18.799v340.06c0 10.382-8.417 18.799-18.799 18.799h18.534c10.382 0 18.799-8.417 18.799-18.799v-340.06c0-10.382-8.417-18.799-18.799-18.799z" fill="#365e7d"/><path d="m473.285 98.076h-24.238c-4.567 0-8.785 2.447-11.052 6.412l-3.954 6.915c-3.188 5.576-9.119 9.017-15.543 9.017h-43.367c-6.423 0-12.354-3.441-15.543-9.017l-3.954-6.915c-2.267-3.965-6.485-6.412-11.052-6.412h-24.238c-4.313 0-7.809 3.496-7.809 7.809v300.228c0 4.313 3.496 7.809 7.809 7.809h152.942c4.313 0 7.809-3.496 7.809-7.809v-300.227c0-4.313-3.497-7.81-7.81-7.81z" fill="#d3effb"/><g><path d="m473.285 98.076h-20.169c4.313 0 7.809 3.496 7.809 7.809v300.228c0 4.313-3.496 7.809-7.809 7.809h20.169c4.313 0 7.809-3.496 7.809-7.809v-300.227c.001-4.313-3.496-7.81-7.809-7.81z" fill="#b1e4f9"/></g><g><path d="m400.816 101.513h-8.001c-4.268 0-7.726-3.459-7.726-7.726 0-4.268 3.459-7.726 7.726-7.726h8.001c4.268 0 7.726 3.459 7.726 7.726s-3.459 7.726-7.726 7.726z" fill="#365e7d"/></g><g><g><path d="m395.002 308.151c-10.162 0-16.396-.939-26.619-7.627-3.571-2.336-4.572-7.125-2.236-10.695 2.336-3.572 7.124-4.571 10.695-2.236 7.138 4.669 10.22 5.177 19.355 5.102 9.945-.066 15.715-7.481 16.869-14.342.454-2.701 1.106-11.808-9.574-15.583-13.837-4.89-21.816-8.716-27.538-13.205-6.673-5.233-9.716-14.327-7.944-23.732 1.935-10.265 9.075-18.43 18.635-21.31 18.09-5.452 32.461.553 33.063.812 3.923 1.68 5.741 6.221 4.061 10.144-1.673 3.904-6.18 5.728-10.094 4.082-.297-.118-10.19-3.974-22.574-.241-4.799 1.445-7.23 5.791-7.906 9.375-.689 3.658.211 7.077 2.295 8.711 5.341 4.189 14.701 7.808 23.152 10.795 14.429 5.101 22.147 17.942 19.663 32.714-2.26 13.442-13.979 27.112-32.005 27.232-.44.003-.873.004-1.298.004z" fill="#78c2a4"/></g><g><path d="m396.248 321.212c-4.268 0-7.726-3.459-7.726-7.726v-114.972c0-4.268 3.459-7.726 7.726-7.726s7.726 3.459 7.726 7.726v114.972c0 4.268-3.458 7.726-7.726 7.726z" fill="#78c2a4"/></g></g><path d="m317.798 200.397-43.702 41.553c-1.654 1.573-4.388.4-4.388-1.883v-15.152c0-1.435-1.163-2.598-2.598-2.598h-95.046c-1.435 0-2.598-1.163-2.598-2.598v-42.411c0-1.435 1.163-2.598 2.598-2.598h95.046c1.435 0 2.598-1.163 2.598-2.598v-15.152c0-2.283 2.733-3.455 4.388-1.883l43.702 41.553c1.077 1.026 1.077 2.743 0 3.767z" fill="#95d6a4"/><path d="m192.05 325.476 43.702 41.553c1.654 1.573 4.388.4 4.388-1.883v-15.152c0-1.435 1.163-2.598 2.598-2.598h95.046c1.435 0 2.598-1.163 2.598-2.598v-42.411c0-1.435-1.163-2.598-2.598-2.598h-95.046c-1.435 0-2.598-1.163-2.598-2.598v-15.152c0-2.283-2.733-3.455-4.388-1.883l-43.702 41.553c-1.077 1.026-1.077 2.743 0 3.767z" fill="#e28086"/></g></svg>