<svg height="481pt" viewBox="-30 0 481 481.36" width="481pt" xmlns="http://www.w3.org/2000/svg"><path d="m146.539062 32.371094c25.164063-25.164063 62.789063-33.140625 95.996094-20.347656 33.203125 12.789062 55.757813 43.945312 57.535156 79.488281.070313 1.488281.109376 2.988281.109376 4.488281.03125 22.300781-8.246094 43.8125-23.21875 60.339844-1.019532 1.121094-2.070313 2.230468-3.140626 3.300781-16.867187 16.894531-39.761718 26.386719-63.636718 26.386719-23.871094 0-46.765625-9.492188-63.632813-26.386719h-.011719c-.9375-.941406-1.847656-1.902344-2.738281-2.871094-15.222656-16.574219-23.652343-38.265625-23.621093-60.769531 0-2.160156.082031-4.308594.230468-6.429688 1.515625-21.597656 10.796875-41.914062 26.128906-57.199218zm127.929688 63.628906c0-35.507812-28.78125-64.289062-64.289062-64.289062-35.507813 0-64.289063 28.78125-64.289063 64.289062s28.78125 64.289062 64.289063 64.289062c35.507812 0 64.289062-28.78125 64.289062-64.289062zm0 0" fill="#f8ec7d"/><path d="m200.488281 61.660156h-12.808593v69.230469h27.691406c9.558594 0 17.308594-7.75 17.308594-17.3125 0-9.558594-7.75-17.308594-17.308594-17.308594 9.554687 0 17.304687-7.746093 17.304687-17.304687s-7.75-17.304688-17.304687-17.304688zm9.691407-29.941406c35.503906.003906 64.28125 28.789062 64.28125 64.292969-.003907 35.5-28.789063 64.28125-64.289063 64.277343-35.503906 0-64.285156-28.785156-64.28125-64.289062s28.785156-64.28125 64.289063-64.28125zm0 0" fill="#e48e66"/><path d="m215.371094 61.660156c9.554687 0 17.304687 7.746094 17.304687 17.304688s-7.75 17.304687-17.304687 17.304687h-27.691406v-34.609375zm0 0" fill="#f8ec7d"/><path d="m215.371094 96.269531c9.558594 0 17.308594 7.75 17.308594 17.308594 0 9.5625-7.75 17.3125-17.308594 17.3125h-27.691406v-34.621094zm0 0" fill="#f8ec7d"/><path d="m211.78125 310.230469-160.089844-69.53125.109375-.160157-.378906-.050781 122.75-61.988281c23.902344 10.410156 51.144531 9.964844 74.699219-1.21875l123.257812 62.257812 1.992188 1-.371094.160157-160.089844 69.53125-.941406.410156zm0 0" fill="#6fe3ff"/><path d="m373.640625 330.320312v59.730469l-160.921875 91.308594v-170.71875l.941406-.410156 45.601563 68.410156 114.25-48.621094zm0 0" fill="#cc7350"/><path d="m211.78125 310.230469-45.601562 68.410156-114.378907-48.671875-46.539062-19.808594 46.429687-69.460937zm0 0" fill="#cc7350"/><path d="m416.628906 233.261719-44.5 6.277343-123.257812-62.257812c9.261718-4.417969 17.699218-10.382812 24.949218-17.640625 1.070313-1.070313 2.121094-2.179687 3.140626-3.300781zm0 0" fill="#cc7350"/><path d="m212.71875 310.640625v170.71875l-160.917969-91.308594v-60.082031l114.378907 48.671875 45.601562-68.410156zm0 0" fill="#e48e66"/><path d="m373.75 240.699219 46.429688 69.460937-46.667969 19.859375-114.25 48.621094-45.601563-68.410156zm0 0" fill="#e48e66"/><path d="m174.171875 178.5-122.75 61.988281-51.242187-7.226562 142.589843-75.53125 1.03125-.960938c.890625.96875 1.800781 1.929688 2.738281 2.871094h.011719c7.945313 7.957031 17.316407 14.355469 27.621094 18.859375zm0 0" fill="#e48e66"/><path d="m210.179688 170.648438c-3.3125 0-6 2.6875-6 6v9.351562c0 3.3125 2.6875 6 6 6s6-2.6875 6-6v-9.351562c0-3.3125-2.6875-6-6-6zm0 0" fill="#6fe3ff"/><path d="m210.179688 21.351562c3.3125 0 6-2.6875 6-6v-9.351562c0-3.3125-2.6875-6-6-6s-6 2.6875-6 6v9.351562c0 3.3125 2.6875 6 6 6zm0 0" fill="#6fe3ff"/><path d="m300.179688 90h-9.351563c-3.3125 0-6 2.6875-6 6s2.6875 6 6 6h9.351563c3.3125 0 6-2.6875 6-6s-2.6875-6-6-6zm0 0" fill="#6fe3ff"/><path d="m129.53125 90h-9.351562c-3.3125 0-6 2.6875-6 6s2.6875 6 6 6h9.351562c3.3125 0 6-2.6875 6-6s-2.6875-6-6-6zm0 0" fill="#6fe3ff"/><path d="m267.210938 44.980469c1.59375 0 3.121093-.632813 4.246093-1.761719l6.609375-6.621094c2.339844-2.34375 2.339844-6.144531-.007812-8.484375-2.34375-2.339843-6.144532-2.339843-8.484375.007813l-6.609375 6.621094c-1.714844 1.714843-2.226563 4.296874-1.296875 6.535156.929687 2.242187 3.117187 3.703125 5.542969 3.703125zm0 0" fill="#6fe3ff"/><path d="m148.902344 148.789062-6.421875 6.4375c-2.390625 2.296876-2.464844 6.09375-.171875 8.484376 2.296875 2.390624 6.097656 2.464843 8.488281.167968l6.597656-6.609375c2.34375-2.34375 2.339844-6.144531-.003906-8.484375-2.347656-2.34375-6.144531-2.339844-8.488281.003906zm0 0" fill="#6fe3ff"/><path d="m150.96875 28.3125c-2.292969-2.394531-6.09375-2.476562-8.484375-.183594-2.394531 2.289063-2.476563 6.089844-.1875 8.484375l6.609375 6.609375c2.355469 2.273438 6.097656 2.238282 8.414062-.074218 2.3125-2.316407 2.34375-6.058594.070313-8.410157zm0 0" fill="#6fe3ff"/><path d="m271.453125 148.785156c-2.34375-2.339844-6.140625-2.339844-8.484375 0-2.34375 2.34375-2.34375 6.144532 0 8.488282l6.605469 6.609374c2.34375 2.34375 6.144531 2.34375 8.488281 0s2.34375-6.140624 0-8.484374zm0 0" fill="#6fe3ff"/><path d="m238.679688 78.960938c-.015626-9.976563-6.367188-18.839844-15.808594-22.054688v-7.203125c0-3.3125-2.6875-6-6-6-3.316406 0-6 2.6875-6 6v5.960937h-4.382813v-5.964843c0-3.3125-2.683593-6-6-6-3.3125 0-6 2.6875-6 6v5.960937h-6.808593c-3.3125 0-6 2.6875-6 6v69.230469c0 3.3125 2.6875 6 6 6h6.808593v5.417969c0 3.316406 2.6875 6 6 6 3.316407 0 6-2.683594 6-6v-5.417969h4.382813v5.417969c0 3.316406 2.683594 6 6 6 3.3125 0 6-2.683594 6-6v-6.652344c7.828125-2.660156 13.664062-9.269531 15.328125-17.367188 1.667969-8.101562-1.082031-16.476562-7.230469-22.011718.300781-.269532.59375-.550782.882812-.835938 4.386719-4.359375 6.84375-10.296875 6.828126-16.480468zm-12 34.617187c0 6.25-5.0625 11.3125-11.308594 11.3125h-21.691406v-22.621094h21.691406c6.242187.007813 11.300781 5.066407 11.308594 11.308594zm-33-23.308594v-22.609375h21.691406c6.242187 0 11.304687 5.0625 11.304687 11.304688 0 6.242187-5.0625 11.304687-11.304687 11.304687zm0 0" fill="#6fe3ff"/><g fill="#2561a1"><path d="m213.609375 288.988281c-3.3125 0-6-2.683593-6-6v-43.238281c0-3.3125 2.6875-6 6-6s6 2.6875 6 6v43.238281c0 3.316407-2.6875 6-6 6zm0 0"/><path d="m213.609375 223.878906c-3.3125 0-6-2.683594-6-6v-10.257812c0-3.316406 2.6875-6 6-6s6 2.683594 6 6v10.257812c0 3.316406-2.6875 6-6 6zm0 0"/><path d="m178.191406 274.371094c-3.316406 0-6-2.6875-6-6v-12.191406c0-3.3125 2.683594-6 6-6 3.3125 0 6 2.6875 6 6v12.191406c0 3.3125-2.6875 6-6 6zm0 0"/><path d="m178.191406 240.21875c-3.316406 0-6-2.683594-6-6v-33.910156c0-3.3125 2.683594-6 6-6 3.3125 0 6 2.6875 6 6v33.910156c0 3.316406-2.6875 6-6 6zm0 0"/><path d="m249.03125 274.371094c-3.316406 0-6-2.6875-6-6v-7.3125c0-3.3125 2.683594-6 6-6 3.3125 0 6 2.6875 6 6v7.3125c0 3.3125-2.6875 6-6 6zm0 0"/><path d="m249.03125 245.339844c-3.316406 0-6-2.6875-6-6v-39.03125c0-3.3125 2.683594-6 6-6 3.3125 0 6 2.6875 6 6v39.03125c0 3.3125-2.6875 6-6 6zm0 0"/><path d="m284.449219 259.75c-3.3125 0-6-2.6875-6-6v-15.320312c0-3.3125 2.6875-6 6-6 3.316406 0 6 2.6875 6 6v15.320312c0 3.3125-2.683594 6-6 6zm0 0"/><path d="m284.449219 227.460938c-3.3125 0-6-2.6875-6-6v-.351563c0-3.3125 2.6875-6 6-6 3.316406 0 6 2.6875 6 6v.351563c0 3.3125-2.683594 6-6 6zm0 0"/><path d="m142.769531 259.75c-3.3125 0-6-2.6875-6-6v-6.808594c0-3.316406 2.6875-6 6-6s6 2.683594 6 6v6.808594c0 3.3125-2.6875 6-6 6zm0 0"/><path d="m142.769531 235.75c-3.3125 0-6-2.6875-6-6v-11.359375c0-3.3125 2.6875-6 6-6s6 2.6875 6 6v11.359375c0 3.3125-2.6875 6-6 6zm0 0"/></g></svg>