<svg id="Capa_1" enable-background="new 0 0 512.003 512.003" height="512" viewBox="0 0 512.003 512.003" width="512" xmlns="http://www.w3.org/2000/svg"><g><g><path clip-rule="evenodd" d="m174.633 363.721c12.87 7.637 26.93 13.52 41.812 17.31v17.027c0 8.118 6.662 14.764 14.797 14.764h24.747c0-148.35 0-223.811 0-372.161h-24.747c-8.136 0-14.797 6.647-14.797 14.764v17.027c-14.882 3.79-28.942 9.673-41.812 17.31l-12.076-12.049c-5.754-5.77-15.194-5.77-20.948 0l-34.98 34.902c-5.754 5.742-5.754 15.132 0 20.874l12.076 12.077c-7.654 12.841-13.55 26.87-17.348 41.719h-17.066c-8.136 0-14.797 6.647-14.797 14.764v49.384c0 8.118 6.662 14.764 14.797 14.764h17.093c3.799 14.849 9.666 28.85 17.32 41.719l-12.076 12.049c-5.754 5.742-5.754 15.16 0 20.902l34.98 34.902c5.754 5.742 15.194 5.742 20.948 0z" fill="#737a93" fill-rule="evenodd"/></g><g><path clip-rule="evenodd" d="m255.989 412.822c103.013 0 186.495-83.325 186.495-186.081 0-102.784-83.482-186.081-186.495-186.081z" fill="#6bd9e7" fill-rule="evenodd"/></g><g><path clip-rule="evenodd" d="m255.989 40.661c43.654 0 82.235 31.508 105.451 79.704 13.153-4.412 25.116-9.588 35.547-15.443-34.187-39.371-84.673-64.261-140.998-64.261z" fill="#00c7dd" fill-rule="evenodd"/></g><g><path clip-rule="evenodd" d="m384.486 226.742h57.998c0-46.584-17.15-89.18-45.497-121.819-10.432 5.855-22.394 11.031-35.547 15.443 14.542 30.15 23.046 66.806 23.046 106.376z" fill="#00c7dd" fill-rule="evenodd"/></g><g><path clip-rule="evenodd" d="m361.44 333.118c13.153 4.384 25.116 9.588 35.547 15.415 28.347-32.64 45.497-75.207 45.497-121.791h-57.998c0 39.541-8.504 76.225-23.046 106.376z" fill="#00c7dd" fill-rule="evenodd"/></g><g><path clip-rule="evenodd" d="m255.989 412.822c56.326 0 106.812-24.918 140.998-64.29-10.432-5.827-22.394-11.031-35.547-15.415-23.217 48.169-61.797 79.705-105.451 79.705z" fill="#00c7dd" fill-rule="evenodd"/></g><g><path clip-rule="evenodd" d="m216.445 145.227c11.962-5.77 25.371-9.023 39.544-9.023v-95.543h-24.747c-8.136 0-14.797 6.647-14.797 14.764v17.027z" fill="#606b82" fill-rule="evenodd"/></g><g><path clip-rule="evenodd" d="m231.242 412.822h24.747v-95.543c-14.174 0-27.582-3.253-39.544-9.051v72.803 17.027c0 8.118 6.661 14.764 14.797 14.764z" fill="#606b82" fill-rule="evenodd"/></g><g><path clip-rule="evenodd" d="m165.25 226.742c0 50.006 40.621 90.537 90.739 90.537v-90.537-90.537c-50.118 0-90.739 40.531-90.739 90.537z" fill="#e8eaea" fill-rule="evenodd"/></g><g><path clip-rule="evenodd" d="m165.25 226.742c0 50.006 40.621 90.537 90.739 90.537v-90.537-90.537c-50.118 0-90.739 40.531-90.739 90.537z" fill="#e8eaea" fill-rule="evenodd"/></g><g><path clip-rule="evenodd" d="m255.989 317.279v-90.537-90.537c-14.174 0-27.582 3.253-39.544 9.023v163.001c11.962 5.797 25.37 9.05 39.544 9.05z" fill="#d4d6d8" fill-rule="evenodd"/></g><g><path clip-rule="evenodd" d="m147.419 363.41c-10.829-29.161-39.034-50.063-71.888-50.063-26.221 0-49.466 13.322-63.271 33.517-14.514 21.185 8.419 17.112 12.246 17.112h46.036c16.073 0 29.368 12.586 30.416 28.369-1.049 15.811-14.344 28.397-30.416 28.397h-46.035c-3.827 0-26.76-4.101-12.246 17.084 13.805 20.195 37.05 33.517 63.271 33.517 32.854 0 61.06-20.902 71.888-50.034h217.138c10.857 29.133 39.034 50.034 71.888 50.034 26.221 0 49.466-13.322 63.299-33.517 14.514-21.185-8.447-17.084-12.274-17.084h-46.007c-16.101 0-29.368-12.586-30.445-28.397 1.077-15.782 14.344-28.369 30.445-28.369h46.007c3.827 0 26.788 4.073 12.274-17.112-13.833-20.195-37.078-33.517-63.299-33.517-32.854 0-61.031 20.902-71.888 50.063z" fill="#c1eaf4" fill-rule="evenodd"/></g><g><path clip-rule="evenodd" d="m457.338 436.128c-30.02 0-56.155-8.768-68.685-32.527-5.188-9.815-6.888-7.099-19.588-7.099h-221.475c-7.767 0-9.666-1.442-12.699 4.921-12.076 25.399-38.864 34.704-69.79 34.704-17.405 0-33.478-5.855-46.376-15.698-7.37-.141-17.235 1.669-6.463 17.395 13.805 20.195 37.05 33.517 63.271 33.517 32.854 0 61.06-20.902 71.888-50.034h217.138c10.857 29.133 39.034 50.034 71.888 50.034 26.221 0 49.466-13.322 63.299-33.517 6.52-9.532 5.471-13.944 1.984-15.924-12.559 8.939-27.894 14.228-44.392 14.228z" fill="#99cfe0" fill-rule="evenodd"/></g><path d="m488.721 413.161c-.53.04-.97.07-1.25.08h-46.01c-11.88 0-21.85-9.14-22.92-20.9 1.07-11.74 11.04-20.87 22.92-20.87h45.99c.3.01.74.05 1.26.09 5.47.4 16.86 1.24 21.61-7.03 4.85-8.43-2.1-18.57-4.39-21.91-15.77-23.03-41.75-36.77-69.49-36.77-1.14 0-2.28.02-3.41.07 11.11-24.74 16.95-51.84 16.95-79.18 0-47.94-11.23-81.99-48.28-127.64-35.58-40.4-87.71-65.94-145.71-65.94h-24.75c-12.29 0-22.3 9.99-22.3 22.26v11.31c-11.48 3.36-22.56 7.94-33.06 13.69l-8.01-8c-4.2-4.22-9.81-6.54-15.79-6.54s-11.58 2.32-15.77 6.52l-34.98 34.9c-4.2 4.2-6.52 9.79-6.52 15.75s2.32 11.55 6.51 15.74l8.03 8.03c-5.75 10.47-10.35 21.52-13.71 32.96h-11.35c-12.3 0-22.3 9.99-22.3 22.27v49.38c0 12.28 10 22.27 22.3 22.27h11.38c3.36 11.44 7.94 22.49 13.68 32.96l-4.53 4.51c-9.22-3.45-19.12-5.32-29.29-5.32-27.75 0-53.72 13.75-69.46 36.77-2.28 3.34-9.24 13.49-4.39 21.92 4.75 8.26 16.12 7.42 21.59 7.02.52-.04.95-.08 1.24-.09h46.03c11.9 0 21.86 9.13 22.9 20.87-1.04 11.76-11 20.9-22.9 20.9h-46.01c-.31-.01-.74-.04-1.27-.08-5.46-.41-16.83-1.26-21.58 6.99-4.85 8.43 2.11 18.58 4.39 21.91 15.74 23.03 41.71 36.78 69.46 36.78 33.23 0 63.5-19.9 76.92-50.03h87.86c4.14 0 7.5-3.36 7.5-7.5 0-4.15-3.36-7.5-7.5-7.5h-92.89c-3.14 0-5.94 1.95-7.03 4.88-10.04 27.01-36.1 45.15-64.86 45.15-22.79 0-44.13-11.31-57.08-30.25-1.81-2.65-2.67-4.44-3.08-5.53 1.44-.19 3.7-.17 6.78.06.93.07 1.67.12 2.36.12h46.03c19.94 0 36.58-15.55 37.9-35.4.02-.33.02-.66 0-.99-1.32-19.84-17.96-35.38-37.9-35.38h-46.03c-.69 0-1.42.06-2.35.13-3.09.22-5.36.24-6.8.04.41-1.09 1.27-2.88 3.09-5.54 12.95-18.95 34.29-30.25 57.08-30.25 28.76 0 54.82 18.15 64.86 45.17 1.09 2.94 3.89 4.89 7.03 4.89h217.14c3.13 0 5.93-1.95 7.03-4.88 2.32-6.25 17.41-44.28 64.85-45.18 22.786-.432 44.14 11.31 57.12 30.25 1.82 2.66 2.68 4.45 3.08 5.54-1.44.2-3.72.18-6.83-.04-.93-.07-1.66-.13-2.34-.13h-46.01c-19.91 0-36.57 15.54-37.92 35.36-.03.34-.03.68 0 1.02 1.35 19.85 18.01 35.39 37.92 35.39h46.01c.69 0 1.42-.05 2.36-.12 3.09-.23 5.36-.25 6.81-.06-.41 1.09-1.27 2.88-3.08 5.53-12.98 18.94-34.33 30.25-57.12 30.25-28.72 0-54.79-18.15-64.86-45.15-1.09-2.94-3.89-4.88-7.02-4.88h-89.98c-3.3 0-6.1 2.12-7.1 5.09-.26.75-.4 1.57-.4 2.41 0 4.14 3.36 7.5 7.5 7.5h84.95c13.44 30.13 43.71 50.03 76.91 50.03 27.74 0 53.72-13.75 69.49-36.78 2.29-3.33 9.24-13.48 4.39-21.9-4.75-8.259-16.13-7.409-21.6-7zm-240.23-284.159c-41.43 3.15-76.82 32.16-87.52 72.72-1.05 4.01 1.34 8.11 5.34 9.16 4.01 1.06 8.11-1.33 9.17-5.34 8.96-33.98 38.39-58.39 73.01-61.5v165.41c-37.5-3.31-68.27-31.25-74.57-68.87-.68-4.09-4.55-6.85-8.63-6.16-4.09.68-6.85 4.55-6.16 8.63 3.78 22.61 15.54 43.3 33.09 58.26 15.84 13.51 35.59 21.58 56.27 23.16v31.44h-96.03c-7.1-15.94-18.9-29.01-33.36-37.8l4.9-4.89c2.43-2.42 2.9-6.19 1.15-9.14-7.37-12.4-12.93-25.77-16.5-39.74-.85-3.32-3.84-5.64-7.27-5.64h-17.09c-4.02 0-7.3-3.26-7.3-7.27v-49.38c0-4.01 3.28-7.27 7.3-7.27h17.06c3.43 0 6.42-2.32 7.27-5.64 3.57-13.96 9.13-27.33 16.53-39.74 1.75-2.94 1.28-6.71-1.14-9.14l-12.09-12.08c-1.36-1.36-2.11-3.18-2.11-5.13s.75-3.77 2.11-5.13l35-34.91c1.36-1.37 3.2-2.13 5.16-2.13 1.97 0 3.8.76 5.18 2.14l12.07 12.05c2.43 2.42 6.18 2.89 9.13 1.14 12.43-7.38 25.83-12.93 39.83-16.49 3.33-.85 5.65-3.84 5.65-7.27v-17.03c0-4 3.28-7.26 7.3-7.26h17.25zm146.57-14.55c23.47 28.89 38.11 65.19 39.75 104.79h-86.52c-.53-30.67-4.31-59.31-10.67-84.48 21.34-4.92 40.86-11.78 57.44-20.31zm-72.34 201.209c-18.83-3.43-38.8-5.41-59.23-5.8v-75.62h69.8c-.56 29.341-4.35 57.121-10.57 81.42zm-59.23-96.419v-75.62c20.43-.39 40.4-2.37 59.23-5.8 6.22 24.3 10.01 52.08 10.57 81.42zm55.11-95.91c-17.51 3.11-36.09 4.91-55.11 5.29v-79.59c22.39 5.25 42.33 33.62 55.11 74.3zm66.16-20.49c-14.92 7.28-32.27 13.17-51.18 17.48-8.89-28.79-21.36-52.08-36.19-67.32 33.84 8.02 63.99 25.66 87.37 49.84zm-121.27 253.069v-31.05c19.03.38 37.6 2.18 55.11 5.28-2.91 9.27-6.19 17.91-9.8 25.77zm96.03 0h-34.28c3.04-7.19 5.8-14.8 8.25-22.77 11.76 2.67 22.91 5.95 33.26 9.8-2.76 4.071-5.19 8.401-7.23 12.97zm17.3-25.149c-12.1-4.8-25.29-8.84-39.27-12.06 6.52-25.74 10.21-54.51 10.73-84.46h86.53c-1.1 25.97-7.86 51.49-19.76 74.41-14.5 3.86-27.71 11.55-38.23 22.11z"/></g></svg>