<?xml version="1.0"?>
<svg xmlns="http://www.w3.org/2000/svg" id="Layer_1" data-name="Layer 1" viewBox="0 0 512 512" width="512" height="512"><title>Search</title><path d="M446,454a7.976,7.976,0,0,1-5.657-2.343l-64.225-64.225a8,8,0,0,1,11.324-11.3l.14.14,64.075,64.075A8,8,0,0,1,446,454Z" style="fill:#2561a1"/><path d="M381.92,381.92a185.885,185.885,0,0,1-20.24,17.53V378.88a35.662,35.662,0,0,0-.85-8.04q-.165-.7-.36-1.41a37.5,37.5,0,0,0-24.78-25.46L283,326.88l-.07-.02V297.98a66.725,66.725,0,0,0,33.75-46.34l3.71-12.76v-.11a18,18,0,0,0,14.89-17.74,17.81,17.81,0,0,0-.52-4.29,13.557,13.557,0,0,0-12.03-10.32V169.98a71.655,71.655,0,0,0-143.31,0v36.44a13.556,13.556,0,0,0-12.06,10.32,17.81,17.81,0,0,0-.52,4.29,18.027,18.027,0,0,0,14.89,17.74v.11l3.71,12.76a66.837,66.837,0,0,0,33.75,46.34v28.88l-.07.02-52.69,17.09a37.521,37.521,0,0,0-24.78,25.46l-.36,1.41a35.662,35.662,0,0,0-.85,8.04v20.57a185.885,185.885,0,0,1-20.24-17.53c-72.27-72.27-72.27-189.45,0-261.72s189.45-72.27,261.72,0S454.19,309.65,381.92,381.92Z" style="fill:#6fe3ff"/><path d="M361.68,378.88v20.57a185.165,185.165,0,0,1-221.24,0V378.88a35.662,35.662,0,0,1,.85-8.04l.36-1.41a37.521,37.521,0,0,1,24.78-25.46l52.69-17.09a67.078,67.078,0,0,0,63.88,0l52.69,17.09a37.5,37.5,0,0,1,24.78,25.46q.195.7.36,1.41A35.662,35.662,0,0,1,361.68,378.88Z" style="fill:#e48e66"/><path d="M282.93,297.98a66.776,66.776,0,0,1-97.49-46.34l-3.71-12.76v-.11a18.027,18.027,0,0,1-14.89-17.74,17.81,17.81,0,0,1,.52-4.29,13.556,13.556,0,0,1,12.06-10.32v.42A9.584,9.584,0,0,0,193.9,199l1.18-26.01a215.151,215.151,0,0,0,25.36-.64c41.07,36.59,102.29,34.23,102.29,34.23v-.16a13.557,13.557,0,0,1,12.03,10.32,18.01,18.01,0,0,1-3.75,15.94,18.014,18.014,0,0,1-10.62,6.09v.11l-3.71,12.76A66.725,66.725,0,0,1,282.93,297.98Z" style="fill:#f7caa5"/><path d="M322.73,206.42v.16s-61.22,2.36-102.29-34.23a212.22,212.22,0,0,0,38.48-6.46s20.2,26,63.81,28.8Z" style="fill:#494f4f"/><path d="M220.44,172.35a215.151,215.151,0,0,1-25.36.64L193.9,199a9.584,9.584,0,0,1-14.48,7.84V169.98a71.655,71.655,0,1,1,143.31,0v24.71c-43.61-2.8-63.81-28.8-63.81-28.8A212.22,212.22,0,0,1,220.44,172.35Z" style="fill:#5f6768"/><path d="M282.93,326.86l.07.02a67.078,67.078,0,0,1-63.88,0l.07-.02V297.98a66.82,66.82,0,0,0,63.74,0Z" style="fill:#edb288"/></svg>
