<?xml version="1.0" encoding="utf-8"?>
<!-- Generator: Adobe Illustrator 24.2.3, SVG Export Plug-In . SVG Version: 6.00 Build 0)  -->
<svg version="1.1" id="picture" xmlns="http://www.w3.org/2000/svg" xmlns:xlink="http://www.w3.org/1999/xlink" x="0px" y="0px"
	 viewBox="0 0 1715.5 886.1" style="enable-background:new 0 0 1715.5 886.1;" xml:space="preserve">
<style type="text/css">
	.st0{fill:#390D00;}
	.st1{fill:#0049E9;}
	.st2{fill:#0046E9;}
	.st3{fill:#FFA464;}
	.st4{fill:#FFB986;}
	.st5{fill:#004CD3;}
	.st6{fill:#0064FF;}
	.st7{fill:#E6E6E6;}
	.st8{fill:#F2F2F2;}
	.st9{fill:#CCCCCC;}
	.st10{fill:#F59651;}
	.st11{fill:#3B8BFF;}
	.st12{fill:#8AD0FF;}
	.st13{fill:#F13F00;}
	.st14{fill:#FFFFFF;}
	.st15{fill:#0567FF;}
	.st16{fill:#B52800;}
	.st17{fill:#A12300;}
	.st18{fill:#8C1E00;}
	.st19{fill:#9C2200;}
	.st20{fill:#CF2E00;}
	.st21{fill:#E66400;}
	.st22{fill:#FEAE0E;}
	.st23{fill:#85C4FC;}
	.st24{fill:#FE8B00;}
	.st25{fill:#4AACFC;}
	.st26{fill:#ABD8F0;}
	.st27{fill:#225AB7;}
	.st28{fill:#77AEDE;}
	.st29{fill:#602E00;}
	.st30{fill:#007275;}
	.st31{fill:#00969E;}
	.st32{fill:#00AD2E;}
	.st33{fill:#00CC37;}
	.st34{fill:#00E33D;}
	.st35{fill:#0742AD;}
	.st36{fill:#008289;}
	.st37{fill:#005457;}
</style>
<g id="man_1">
	<path id="XMLID_165_" class="st0" d="M274.5,853.1c0,0-2.1,21.2-1.9,28.8h37.9v-1c0-2.1-1.5-3.9-3.5-4.2
		c-9.3-1.4-15.8-13.2-19-28.4L274.5,853.1z"/>
	<path id="XMLID_164_" class="st0" d="M469.6,853.1c0,0-2.1,21.2-1.9,28.8h52.5v-1c0-2.1-1.5-3.9-3.5-4.2
		c-9.3-1.4-26.4-5.4-33.6-28.4L469.6,853.1z"/>
	<path id="XMLID_163_" class="st1" d="M437.9,468.9c0,0,41.4,123.5,45.5,215.1c-12.7,17.2-27.6,25.2-47.6,13.4
		c0,0-28.4-73.1-43-98.7C378.2,573.1,336,482,352.5,458.6L437.9,468.9z"/>
	<path id="XMLID_162_" class="st1" d="M483.4,684.1c0,0,6.9,116,3.9,169.5l-20,8.7c-10.3-58-33.4-115.8-31.5-164.8
		C447.4,674,463.7,671.7,483.4,684.1z"/>
	<path id="XMLID_161_" class="st2" d="M419,456.6c0,0,6.3,97.8-65.3,249.7c-19,9.7-37,7.2-49.5-12.3c0,0,5.1-83.4,6.4-112.9
		c2.3-51.5-18.4-85.7,6.8-99.3l92-54.7L419,456.6z"/>
	<path id="XMLID_160_" class="st2" d="M354.9,702.6c0,0-38.9,106.9-60.5,155.9l-21.8,1.1c10.7-57.9,0.7-119.2,31.6-165.6
		C323.2,676.1,340.8,684.1,354.9,702.6z"/>
	<path id="XMLID_159_" class="st1" d="M423.6,222.2c-22.2-3.1-42.9,34-46.2,65.2c-3.7,34.6,1.4,57.7,24.7,113.7
		c5.7,13.6,21.9,12.3,45.9-1.3c0,0-12.5-47.8-2.6-106.9C453.8,242.7,431.3,223.2,423.6,222.2z"/>
	<path id="XMLID_158_" class="st3" d="M516.4,505.7c0,0,7.9-0.1,12.2,5c0.5,0.6,3,0.5,3-1.1c0,0,3.5,2.4,3.8,0.4
		c0,0,7.2,3.2,3.6-3.1C535.5,500.6,519,499.8,516.4,505.7z"/>
	<path id="XMLID_157_" class="st4" d="M499.8,497c0,0,22.9-10.8,38.9,5.3s-1,4.8-6,2.3c-5-2.5-14.6,5.9-22.4,6.2
		C502.6,511,500.1,506.6,499.8,497z"/>
	<path id="XMLID_156_" class="st4" d="M505.7,502.9c-1.7,3.1,0.6,9,14.4,7.7c5.5-0.6,7.9-0.1,8.1-1.4c0.3-2-3.7-1.7-8.2-3.9
		C512.6,501.6,507.4,499.8,505.7,502.9z"/>
	<path id="XMLID_155_" class="st5" d="M443.8,385.7c0,0,33.4,68.5,63.6,108.3l-9.8,8.8c0,0-61.7-42.5-92.8-96.2
		C395.2,390,419.1,377.6,443.8,385.7z"/>
	<path id="XMLID_154_" class="st6" d="M380.7,192.8c-25.3,4.9-50.4,42.4-60.6,101.4c-14.7,85.1-28,208.8-28,208.8h110.6l6.7-61.7
		c0,0,12.1,35.8,14.3,59.5l23.6,0.8c0,0,0.4-61.1,12.4-182.1C466.1,256.3,428.4,183.6,380.7,192.8z"/>
	<g id="XMLID_148_">
		
			<rect id="XMLID_153_" x="420.6" y="506.4" transform="matrix(-1 -1.224647e-16 1.224647e-16 -1 942.3871 1017.1137)" class="st7" width="101.2" height="4.4"/>
		
			<rect id="XMLID_152_" x="473.8" y="506.4" transform="matrix(-1 -1.224647e-16 1.224647e-16 -1 1084.9584 1017.1137)" class="st8" width="137.3" height="4.4"/>
		<polygon id="XMLID_151_" class="st8" points="504.6,382.1 639.3,382.6 642.5,384.1 611.3,507.1 476.6,506.6 		"/>
		<path id="XMLID_150_" class="st9" d="M578.5,447.9c-1.1,7.1-6.6,12.4-12.3,11.9c-5.7-0.5-9.5-6.6-8.5-13.7
			c1.1-7.1,6.6-12.4,12.3-11.9C575.8,434.8,579.6,440.9,578.5,447.9z"/>
		<polygon id="XMLID_149_" class="st9" points="507.8,383.6 504.6,382.1 473.4,505.2 476.6,506.6 		"/>
	</g>
	<path id="XMLID_147_" class="st10" d="M529.8,426.1c0,0-16.1,6.7-25.5,4.5l13.6,17.7c0,0,21.4,2.1,27.5-1.9
		C551.5,442.4,529.8,426.1,529.8,426.1z"/>
	<path id="XMLID_146_" class="st3" d="M547.3,449.3c-2.4,4.3-8.4-0.3-9.5,0.8c-1.1,1.1,3.9,2.4,1.5,4.4c-3.5,3.1-6.5-1.8-7.8-0.4
		c-1.3,1.3,2.7,1.9-0.6,4.1c-3.3,2.2-4.9-1.1-5.9-1.2c-1.1-0.1-1.1,2-1.8,2.4c-6.7,4.6-29.5-18.8-29.5-18.8s0.1-9.6,2.5-9.6
		c2.4,0,7.6-0.6,10-3.2c2.4-2.7,11.9-12.4,19.9-9.1c2.6,1.1,4.6,2.8,5.9,4.6c0,0,0,0,0,0c2.6,3.7,2.7,7.9,1,8.6
		c-2.7,1.1-5.5-7.7-9.1-5.7c-0.7,0.4-1,1-0.9,1.7c0.2,2.7,5.5,7.4,10,11.2c0.1,0.1,0.3,0.3,0.5,0.4c3.9,3.3,10,4.6,12.8,6.5
		c0,0,0,0,0,0C547.5,446.9,548.1,447.9,547.3,449.3z"/>
	<path id="XMLID_145_" class="st4" d="M500,444.4c-2.6,0.7-0.4,5.5,1.7,4.2C503.9,447.4,504.5,443.3,500,444.4z"/>
	<path id="XMLID_144_" class="st4" d="M506.9,452.5c-2.6,0.7-0.4,5.5,1.7,4.2C510.8,455.5,511.4,451.4,506.9,452.5z"/>
	<path id="XMLID_143_" class="st4" d="M511.2,455.2c-2.6,0.7-0.4,5.5,1.7,4.2C515.1,458.2,515.7,454,511.2,455.2z"/>
	<path id="XMLID_142_" class="st4" d="M502.3,448.5c-3.3,0.8-0.5,6.8,2.2,5.3C507.1,452.3,507.9,447.1,502.3,448.5z"/>
	<path id="XMLID_141_" class="st4" d="M553.7,429.9c0,0-5.3,0.8-10.7-2.1c-2.5-1.3-6.5-3.3-11-4.5c0,0,0,0,0,0
		c-5.3-1.4-11.4-2-17,0.3c-5.4,2.2-3.2,6,2,4.2c1.7-0.6,3.9-0.4,6,0.1c2.7,0.7,5.2,2.1,5.9,3c1.2,1.6,2.4,4.9,4.1,8.2
		c0.1,0.1,0.3,0.3,0.5,0.4c3.9,3.3,10,4.6,12.8,6.5c0,0,0,0,0,0c5-3.1,9.8-9.5,9.8-9.5L553.7,429.9z"/>
	<g id="XMLID_138_">
		<path id="XMLID_140_" class="st11" d="M358.1,232.4c-22.3-2.2-32.2,31.6-31.7,62.8c0.5,31.9-6,55.8,18.7,115.5
			c5.6,13.6,20.7,12.7,44.2-1.8c0,0-4.3-58.2-5.9-113.7C381.9,244.3,365.8,233.2,358.1,232.4z"/>
		<path id="XMLID_139_" class="st11" d="M377.8,380.4c0,0,71.5,36.7,119.9,49.1l-2.2,13c0,0-72.6-1.3-139.6-22.1
			C339.2,415.2,353.4,389.4,377.8,380.4z"/>
	</g>
	<path id="XMLID_137_" class="st12" d="M403.4,200.5l-16.8,7.9l4.4,30l14.1,8.2c0,0,22.2,57.4,24.3,64c0,0,7-30.8,4-53l-4.8-14.5
		l-2.2-14.9c0,0-12.1-20.7-14.3-23.6L403.4,200.5z"/>
	<path id="XMLID_136_" class="st13" d="M405.3,227.4c0,0,10.9,34.9,13.8,55.5c0,0,10,17.9,10.7,26.8c0,0,2.8-17.9,2.6-28.7
		c-0.1-10.8-20.5-49.6-24.3-54.2C404.4,222.1,405.3,227.4,405.3,227.4z"/>
	<path id="XMLID_135_" class="st3" d="M391.8,154.1c0,0-3.5,26.3-14.5,38.4c0,0-1.4,9.3,11,13.5c12.5,4.3,17.1-0.4,19.3-2
		c0,0-2.1-9.2,4-26.3C417.7,160.8,391.8,154.1,391.8,154.1z"/>
	<path id="XMLID_134_" class="st13" d="M389.6,212.5c0,0,13.8,12.6,15.8,14.9l2.8-0.6l1.3-18.7l-6-7.6L389.6,212.5z"/>
	<path id="XMLID_133_" class="st4" d="M442.2,110.2c4.3,19.1,11.4,66.5-11,73.9c-15.4,5.1-43.4-19.6-47.3-34.7
		C380,134.1,365.7,111.8,402,99C431.2,88.7,439.9,99.7,442.2,110.2z"/>
	<path id="XMLID_132_" class="st0" d="M435.8,72.8c2.7,5.6-0.2,10.1-16.6,10.2c-4.4,0-9.1,0.2-13.7,0.7c-2,0.2-3.9,0.4-5.8,0.6
		c-6.6,0.9-12.6,2.2-16.8,4.3c-2.4,1.2-6.1,3.6-7.3,5.1c-5.5,6.3-7.4,13.4-8,18c-0.9,6.4,5.5,10,6.5,15.5c5.1,28.7,20.4,39,20.4,39
		c2.6-1.6,0.5-6.9-2.9-9.4c-3.6-2.6-5.5-3.4-7.3-9.2c-2.4-8,0.6-12.7,4.4-13.3c0.6-0.1,1.2,0,1.9,0.2c0.9,0.3,2,0.8,3,1.5
		c1.1,0.7,2.1,1.6,3.1,2.6c0,0,0,0,0,0c2.1,2.2,3,5.2,2.9,8.3c-0.1,2.6-0.5,4.5-0.5,4.5l4,0.2c0,0,1.5-3.9,1.7-9.5
		c0-1.4,0.1-3.2-0.6-5.4c-0.4-1.2-0.9-2.6-1.6-4.1c-6.1-12.4-2.3-20.6,7.2-25.1c8.4-3.9,23.4-3,31.9-0.5c3.2-1.7,5.5-5.1,5.9-9.7
		C448.6,82.7,435.8,72.8,435.8,72.8z"/>
	<path id="XMLID_131_" class="st14" d="M372.4,195.8l9.7-10.2c0,0,8.4,11.8,21.2,14.9L388.8,224L372.4,195.8z"/>
	<path id="XMLID_130_" class="st14" d="M415.2,218.3l-11.8-17.8c0,0,3.5-0.6,4.8-10.4l3.8,14.4C412,204.5,415.2,214.3,415.2,218.3z"
		/>
	<path id="XMLID_129_" class="st15" d="M372.4,195.8c0,0,47.6,53.6,57.3,113.9c0,0,4.1-66.4-17.7-105.1c0,0,18.9,21.1,25.4,37.6
		l-7.1,2.7l9.7,7.1c0,0-2.4,25.9-10.5,61.9c0,0-11.2-38.5-34.7-56.1l8.9-10.9l-19-2.7C384.8,244.1,386.3,226.9,372.4,195.8z"/>
</g>
<g id="table">
	
		<rect id="XMLID_127_" x="742.9" y="520.1" transform="matrix(-1 -1.224647e-16 1.224647e-16 -1 1501.8353 1402.0487)" class="st16" width="16.1" height="361.8"/>
	<rect id="XMLID_126_" x="508.4" y="520.1" class="st17" width="239.9" height="361.8"/>
	<rect id="XMLID_125_" x="500" y="560.7" class="st18" width="166.3" height="146.7"/>
	<rect id="XMLID_124_" x="517.1" y="515.9" class="st19" width="209" height="56.3"/>
	
		<rect id="XMLID_123_" x="530.8" y="520.1" transform="matrix(-1 -1.224647e-16 1.224647e-16 -1 1077.7333 1402.0487)" class="st16" width="16.1" height="361.8"/>
	<rect id="XMLID_122_" x="296.3" y="520.1" class="st17" width="239.9" height="361.8"/>
	<rect id="XMLID_121_" x="261.5" y="510.7" class="st16" width="309.5" height="14.7"/>
	<rect id="XMLID_120_" x="477.2" y="510.7" class="st20" width="309.5" height="14.7"/>
</g>
<g id="books">
	<g id="XMLID_95_">
		<path id="XMLID_118_" class="st21" d="M652.7,485.8v24.9H572l-0.5-0.7c-5.5-8-5.5-16,0-23.6l0.5-0.7H652.7z"/>
		<g id="XMLID_115_">
			<path id="XMLID_117_" class="st22" d="M577.9,510l0.5,0.7H572l-0.5-0.7c-5.5-8-5.5-16,0-23.6l0.5-0.7h6.4l-0.5,0.7
				C572.4,494.1,572.4,502,577.9,510z"/>
			<path id="XMLID_116_" class="st22" d="M641.2,510l0.5,0.7h-6.4l-0.5-0.7c-5.5-8-5.5-16,0-23.6l0.5-0.7h6.4l-0.5,0.7
				C635.7,494.1,635.7,502,641.2,510z"/>
		</g>
		<path id="XMLID_114_" class="st23" d="M693.2,505.2c0.7,1.4,1.5,2.9,2.6,4.3h-53.1c-5.1-7.6-5.3-15.1,0-22.4h53.1
			c-1.1,1.3-1.9,2.6-2.6,3.9c-0.1,0.2-0.2,0.3-0.2,0.5c-0.6,1.3-1,2.7-1.3,4.1c0,0.2-0.1,0.3-0.1,0.5c-0.2,1.3-0.2,2.7,0,4.1
			c0,0.2,0,0.3,0.1,0.5c0.2,1.3,0.7,2.7,1.2,4.1C693,504.8,693.1,505,693.2,505.2z"/>
		<path id="XMLID_113_" class="st24" d="M699.2,510.7h-57.6l-0.5-0.7c-5.5-8-5.5-16,0-23.6l0.5-0.7h57.5v2.5h-55.5
			c-4.4,6.5-4.4,13,0,19.9h55.5V510.7z"/>
		<g id="XMLID_108_">
			<path id="XMLID_112_" class="st25" d="M693.2,491c-0.1,0.2-0.2,0.3-0.2,0.5h-44.7c-0.2,0-0.3-0.1-0.3-0.3c0-0.1,0.2-0.3,0.3-0.3
				H693.2z"/>
			<path id="XMLID_111_" class="st25" d="M691.7,495.5c0,0.2-0.1,0.3-0.1,0.5h-44.8c-0.2,0-0.3-0.1-0.3-0.3s0.2-0.3,0.3-0.3H691.7z"
				/>
			<path id="XMLID_110_" class="st25" d="M691.7,500.6h-44.9c-0.2,0-0.3-0.1-0.3-0.3c0-0.1,0.2-0.3,0.3-0.3h44.8
				C691.6,500.3,691.7,500.4,691.7,500.6z"/>
			<path id="XMLID_109_" class="st25" d="M693.2,505.2h-44.9c-0.2,0-0.3-0.1-0.3-0.3c0-0.1,0.2-0.3,0.3-0.3h44.7
				C693,504.8,693.1,505,693.2,505.2z"/>
		</g>
		<path id="XMLID_97_" class="st25" d="M685.9,507.5h-20.4c-0.1,0-0.3-0.1-0.3-0.3l0,0c0-0.1,0.1-0.3,0.3-0.3h20.4
			c0.1,0,0.3,0.1,0.3,0.3l0,0C686.2,507.4,686.1,507.5,685.9,507.5z"/>
		<path id="XMLID_96_" class="st26" d="M666.2,507.2c0,0,3.5,1.2,3.8,3.3h18c0,0-0.9-2.4-3.5-3.3H666.2z"/>
	</g>
	<g id="XMLID_73_">
		<path id="XMLID_94_" class="st27" d="M662.7,460.9v24.9H582l-0.5-0.7c-5.5-8-5.5-16,0-23.6l0.5-0.7H662.7z"/>
		<g id="XMLID_91_">
			<path id="XMLID_93_" class="st28" d="M587.9,485.1l0.5,0.7H582l-0.5-0.7c-5.5-8-5.5-16,0-23.6l0.5-0.7h6.4l-0.5,0.7
				C582.4,469.1,582.4,477.1,587.9,485.1z"/>
			<path id="XMLID_92_" class="st28" d="M651.2,485.1l0.5,0.7h-6.4l-0.5-0.7c-5.5-8-5.5-16,0-23.6l0.5-0.7h6.4l-0.5,0.7
				C645.7,469.1,645.7,477.1,651.2,485.1z"/>
		</g>
		<path id="XMLID_90_" class="st23" d="M703.2,480.2c0.7,1.4,1.5,2.9,2.6,4.3h-53.1c-5.1-7.6-5.3-15.1,0-22.4h53.1
			c-1.1,1.3-1.9,2.6-2.6,3.9c-0.1,0.2-0.2,0.3-0.2,0.5c-0.6,1.3-1,2.7-1.3,4.1c0,0.2-0.1,0.3-0.1,0.5c-0.2,1.3-0.2,2.7,0,4.1
			c0,0.2,0,0.3,0.1,0.5c0.2,1.3,0.7,2.7,1.3,4.1C703,479.9,703.1,480.1,703.2,480.2z"/>
		<path id="XMLID_89_" class="st27" d="M709.2,485.8h-57.6l-0.5-0.7c-5.5-8-5.5-16,0-23.6l0.5-0.7h57.5v2.5h-55.5
			c-4.4,6.5-4.4,13,0,19.9h55.5V485.8z"/>
		<g id="XMLID_76_">
			<path id="XMLID_88_" class="st25" d="M703.2,466c-0.1,0.2-0.2,0.3-0.2,0.5h-44.7c-0.2,0-0.3-0.1-0.3-0.3c0-0.1,0.2-0.3,0.3-0.3
				H703.2z"/>
			<path id="XMLID_87_" class="st25" d="M701.6,470.6c0,0.2-0.1,0.3-0.1,0.5h-44.8c-0.2,0-0.3-0.1-0.3-0.3c0-0.1,0.2-0.3,0.3-0.3
				H701.6z"/>
			<path id="XMLID_86_" class="st25" d="M701.7,475.7h-44.9c-0.2,0-0.3-0.1-0.3-0.3c0-0.1,0.2-0.3,0.3-0.3h44.8
				C701.6,475.3,701.6,475.5,701.7,475.7z"/>
			<path id="XMLID_85_" class="st25" d="M703.2,480.2h-44.9c-0.2,0-0.3-0.1-0.3-0.3c0-0.1,0.2-0.3,0.3-0.3h44.7
				C703,479.9,703.1,480.1,703.2,480.2z"/>
		</g>
		<path id="XMLID_75_" class="st25" d="M695.9,482.6h-20.4c-0.1,0-0.3-0.1-0.3-0.3l0,0c0-0.1,0.1-0.3,0.3-0.3h20.4
			c0.1,0,0.3,0.1,0.3,0.3l0,0C696.2,482.5,696.1,482.6,695.9,482.6z"/>
		<path id="XMLID_74_" class="st26" d="M676.2,482.3c0,0,3.5,1.2,3.8,3.3h18c0,0-0.9-2.4-3.5-3.3H676.2z"/>
	</g>
</g>
<g id="man_2">
	<path id="XMLID_72_" class="st4" d="M646.3,117.4c-1.7,19.3-2.7,67,20.4,71.4c15.8,3,40.3-24.9,42.1-40.3
		c1.9-15.6,13.1-39.4-24.3-47.3C654.4,94.8,647.2,106.7,646.3,117.4z"/>
	<path id="XMLID_71_" class="st0" d="M840.1,853.1c0,0,2.1,21.2,1.9,28.8h-37.9v-1c0-2.1,1.5-3.9,3.5-4.2c9.3-1.4,15.8-13.2,19-28.4
		L840.1,853.1z"/>
	<path id="XMLID_70_" class="st3" d="M697.2,159.6c0,0,6.3,30.6,16.7,41.6c0,0-1,2.2-12.5,6.4c-11.4,4.2-16.5,5.4-18.5,4.1
		c0,0,2.4-14.1-3.6-29.8C673.4,166.3,697.2,159.6,697.2,159.6z"/>
	<path id="XMLID_69_" class="st29" d="M723.7,116.1c-2.4-4.4-9.2-3.7-9.2-3.7s8.4-7.6,1.6-18.5c-6.8-11-19.9-0.8-19.9-0.8
		c2-9.5,0.4-18.8-6.5-24c-5.3-4-13.4-1.1-22.9,6.6c-3,2.4-6.4,5.1-9.4,8.5c-4.8,5.4-6.8,14.7-6.4,22c4.5,0.4,14.7,3.3,18.6,8.2
		c4.9,6.2,7,14.6,4,24.4c-2.2,7.1-0.6,11.3,0.4,13c0.4,0.7,0.7,1,0.7,1c0-0.7,0-1.3,0-1.9c0.2-2.2,1-4.1,2-5.4
		c1-1.4,2.1-2.2,3.1-2.3c0.4,0,0.7,0.1,1,0.3c1.9,1.5,3.6,6.4,2.4,13.1c-1.2,6.7-3.7,4.7-5,12.6c-0.2,1.1-0.2,2.2-0.1,3.3
		c0.7,6.1,5.8,10.3,5.8,10.3s11.5,3.5,20.6-4.2c-1.8-7.1-1.1-7-0.1-11c1.3-4.9,10.4-17.9,16.2-28.9
		C731.5,122.7,725.7,119.9,723.7,116.1z"/>
	<path id="XMLID_67_" class="st0" d="M688.5,853.1c0,0,2.1,21.2,1.9,28.8h-52.5v-1c0-2.1,1.5-3.9,3.5-4.2
		c9.3-1.4,26.4-5.4,33.6-28.4L688.5,853.1z"/>
	<g id="XMLID_64_">
		<path id="XMLID_66_" class="st30" d="M686.5,458.2c0,0-3.7,97.9,71.9,247.9c19.3,9.2,37.1,6.2,49.2-13.7c0,0-7.3-83.3-9.4-112.7
			c-3.7-51.4,16.1-86.1-9.5-99.1l-93.4-52.2L686.5,458.2z"/>
		<path id="XMLID_65_" class="st30" d="M757.1,702.5c0,0,41.8,105.8,64.6,154.2l21.8,0.5c-12.3-57.6-3.8-119.1-36-164.7
			C788.1,675.1,770.7,683.6,757.1,702.5z"/>
	</g>
	<g id="XMLID_61_">
		<path id="XMLID_63_" class="st31" d="M666.5,469.9c0,0-24.3,128-16,219.3c14.9,15.3,30.8,21.3,49,6.8c0,0,18.3-76.3,29.3-103.6
			c11-27.4,40.5-123.3,21-144.3L666.5,469.9z"/>
		<path id="XMLID_62_" class="st31" d="M650.5,689.2c0,0,8.8,115.9,19,168.5l21,5.9c2.4-58.9,17.4-119.2,8.9-167.5
			C684.9,674.4,668.4,674.3,650.5,689.2z"/>
	</g>
	<g id="XMLID_58_">
		<path id="XMLID_60_" class="st32" d="M733.9,227.5c21.8,5.4,19.8,40.5,8.9,69.9c-11.2,29.9-13,54.6-56.3,102.6
			c-9.9,11-23.7,5-41-16.5c0,0,23.5-53.4,43.6-105.2C707.6,230.8,726.4,225.7,733.9,227.5z"/>
		<path id="XMLID_59_" class="st32" d="M662.7,366.8c0,0-66.9,44.5-113.6,62.3l3.7,12.7c0,0,71.9-9.4,136.3-37.6
			C705,397.1,687.9,373,662.7,366.8z"/>
	</g>
	<path id="XMLID_57_" class="st33" d="M706,199.4c26.5-2.3,57.6,53,76,111.2c26.1,82.3,32.3,192.4,32.3,192.4
		c-62.1,5.2-113.6,4.6-155.2-1.4c0,0,9.5-113.5,0-180C650.2,258.6,668.9,202.5,706,199.4z"/>
	<path id="XMLID_56_" class="st4" d="M676.8,502.1c0,0-23.2,10-33.4,24.1c-10.2,14.1-11,21-8.2,22c3.6,1.3,8.4-12.4,12-11.6
		c3.6,0.8-8,23-1.9,24c4.7,0.8,6.2-16.9,10.1-15.6c4,1.4-5.5,16.5,0,17.4c5.4,0.9,6.4-16.2,9.5-15.3c3.1,0.9-1.2,12.1,1.8,13
		c1.8,0.5,7-9.4,10-23C679.7,523.4,682.8,503.3,676.8,502.1z"/>
	<path id="XMLID_55_" class="st4" d="M665.1,508c0,0-16.2,13-28.7,15.6c-0.9,0.2-1.1,1.5-0.2,1.8c4,1.7,12.4,3.5,22.9-3.2
		C674.1,512.7,665.1,508,665.1,508z"/>
	<g id="XMLID_52_">
		<path id="XMLID_54_" class="st34" d="M702.2,222.9c21.3-7.1,42.1,24.7,51,54.6c9.9,33.4,10,66.9,2.9,117.2
			c-2.1,14.6-19.2,16.1-45.3,7.2c0,0,3.5-49.3-17-105.5C676.3,248.6,694.9,225.4,702.2,222.9z"/>
		<path id="XMLID_53_" class="st34" d="M712.4,387.4c0,0-20.3,73.4-42.7,118.1l11.3,6.9c0,0,52.9-53.1,73.6-111.6
			C760.9,382.7,735.2,374.9,712.4,387.4z"/>
	</g>
</g>
<g id="chair">
	<polygon id="XMLID_50_" class="st35" points="802.1,881.9 792.6,880.5 825.9,683.3 835.5,684.8 	"/>
	<polygon id="XMLID_49_" class="st35" points="930.1,881.9 896.7,684.8 906.3,683.3 939.7,880.5 	"/>
	<polygon id="XMLID_48_" class="st15" points="715.6,881.9 706,880.5 739.4,683.3 749,684.8 	"/>
	<polygon id="XMLID_47_" class="st15" points="843.6,881.9 810.2,684.8 819.8,683.3 853.1,880.5 	"/>
	<path id="XMLID_46_" class="st36" d="M971.5,453.1c3.6,0,6.2,3.1,5.5,6.4l-44.2,206.1c-2.9,13.3-14.9,22.8-28.8,22.8h-90.1h-89.6
		h90.1c13.9,0,25.9-9.5,28.8-22.8l45.6-212.5H971.5z"/>
	<path id="XMLID_45_" class="st37" d="M814.4,688.6h-90.1c-2.7,0-4.8-2.1-4.8-4.6c0-2.5,2.2-4.6,4.8-4.6h90.1
		c11.6,0,21.7-7.8,24.1-18.5l45.6-204.3c0.6-2.5,3.1-4.1,5.7-3.5c2.6,0.5,4.3,3,3.7,5.4L848,662.9
		C844.6,677.8,830.5,688.6,814.4,688.6z"/>
</g>
</svg>
