<svg xmlns="http://www.w3.org/2000/svg" viewBox="0 0 298.26 339.51"><defs><style>.cls-1{fill:#390d00;}.cls-2{fill:#0049e9;}.cls-3{fill:#0046e9;}.cls-4{fill:#ffa464;}.cls-5{fill:#ffb986;}.cls-6{fill:#004cd3;}.cls-7{fill:#0064ff;}.cls-8{fill:#e6e6e6;}.cls-9{fill:#f2f2f2;}.cls-10{fill:#ccc;}.cls-11{fill:#f59651;}.cls-12{fill:#3b8bff;}.cls-13{fill:#8ad0ff;}.cls-14{fill:#f13f00;}.cls-15{fill:#fff;}.cls-16{fill:#0567ff;}.cls-17{fill:#b52800;}.cls-18{fill:#a12300;}.cls-19{fill:#8c1e00;}.cls-20{fill:#9c2200;}.cls-21{fill:#cf2e00;}.cls-22{fill:#e66400;}.cls-23{fill:#feae0e;}.cls-24{fill:#85c4fc;}.cls-25{fill:#fe8b00;}.cls-26{fill:#4aacfc;}.cls-27{fill:#abd8f0;}.cls-28{fill:#225ab7;}.cls-29{fill:#77aede;}.cls-30{fill:#602e00;}.cls-31{fill:#007275;}.cls-32{fill:#00969e;}.cls-33{fill:#00ad2e;}.cls-34{fill:#00cc37;}.cls-35{fill:#00e33d;}.cls-36{fill:#0742ad;}.cls-37{fill:#008289;}.cls-38{fill:#005457;}</style></defs><g id="Layer_2" data-name="Layer 2"><g id="Layer_1-2" data-name="Layer 1"><g id="man_1" data-name="man 1"><path class="cls-1" d="M5.42,327.05s-.88,8.84-.79,12H20.42v-.42A1.74,1.74,0,0,0,19,336.89c-3.87-.58-6.58-5.5-7.92-11.84Z"/><path class="cls-1" d="M86.73,327.05s-.87,8.84-.79,12h21.88v-.42a1.74,1.74,0,0,0-1.46-1.75c-3.87-.58-11-2.25-14-11.84Z"/><path class="cls-2" d="M73.52,166.92s17.26,51.48,19,89.65c-5.3,7.17-11.51,10.51-19.84,5.59,0,0-11.84-30.47-17.93-41.14s-23.67-48.64-16.79-58.39Z"/><path class="cls-2" d="M92.49,256.62s2.87,48.34,1.62,70.64l-8.33,3.63c-4.3-24.18-13.93-48.27-13.13-68.69C77.48,252.41,84.27,251.45,92.49,256.62Z"/><path class="cls-3" d="M65.64,161.8s2.63,40.76-27.21,104.07c-7.92,4-15.42,3-20.63-5.13,0,0,2.12-34.76,2.66-47.05,1-21.47-7.66-35.72,2.84-41.39l38.34-22.8Z"/><path class="cls-3" d="M38.93,264.33s-16.22,44.55-25.22,65l-9.08.46c4.46-24.13.29-49.68,13.17-69C25.72,253.28,33.05,256.62,38.93,264.33Z"/><path class="cls-2" d="M67.56,64.1c-9.25-1.29-17.88,14.17-19.25,27.18-1.55,14.42.58,24,10.29,47.38,2.38,5.67,9.13,5.13,19.13-.54a117.46,117.46,0,0,1-1.08-44.55C80.15,72.64,70.77,64.52,67.56,64.1Z"/><path class="cls-4" d="M106.24,182.26s3.29,0,5.08,2.08c.21.25,1.25.21,1.25-.45,0,0,1.46,1,1.59.16,0,0,3,1.34,1.5-1.29S107.32,179.8,106.24,182.26Z"/><path class="cls-5" d="M99.32,178.63s9.55-4.5,16.21,2.21-.41,2-2.5,1-6.08,2.46-9.33,2.59S99.45,182.64,99.32,178.63Z"/><path class="cls-5" d="M101.78,181.09c-.71,1.3.25,3.75,6,3.21,2.29-.25,3.29,0,3.38-.58.12-.83-1.54-.71-3.42-1.63C104.66,180.55,102.49,179.8,101.78,181.09Z"/><path class="cls-6" d="M76,132.25s13.92,28.55,26.51,45.13l-4.09,3.67S72.69,163.34,59.73,141C55.72,134,65.69,128.87,76,132.25Z"/><path class="cls-7" d="M49.68,51.85c-10.54,2-21,17.67-25.26,42.26-6.12,35.47-11.67,87-11.67,87h46.1l2.79-25.71s5,14.92,6,24.8l9.84.33s.17-25.46,5.17-75.9C85.27,78.31,69.56,48,49.68,51.85Z"/><rect class="cls-8" x="66.31" y="182.52" width="42.18" height="1.83"/><rect class="cls-9" x="88.51" y="182.52" width="57.23" height="1.83"/><polygon class="cls-9" points="101.32 130.75 157.46 130.95 158.8 131.58 145.79 182.84 89.65 182.63 101.32 130.75"/><path class="cls-10" d="M132.12,158.17c-.46,3-2.75,5.17-5.12,5s-4-2.75-3.55-5.71,2.75-5.17,5.13-5S132.58,155.25,132.12,158.17Z"/><polygon class="cls-10" points="102.66 131.37 101.32 130.75 88.32 182.05 89.65 182.63 102.66 131.37"/><path class="cls-11" d="M111.82,149.08s-6.71,2.8-10.62,1.88l5.66,7.38s8.92.87,11.47-.8S111.82,149.08,111.82,149.08Z"/><path class="cls-4" d="M119.12,158.75c-1,1.8-3.5-.12-4,.34s1.62,1,.62,1.83c-1.45,1.29-2.71-.75-3.25-.17s1.13.8-.25,1.71-2-.46-2.46-.5-.45.84-.75,1c-2.79,1.92-12.29-7.83-12.29-7.83s0-4,1-4,3.17-.25,4.17-1.34,5-5.17,8.29-3.79a5.81,5.81,0,0,1,2.46,1.92h0c1.08,1.54,1.13,3.29.42,3.58-1.13.46-2.29-3.21-3.79-2.37a.65.65,0,0,0-.38.7c.08,1.13,2.29,3.09,4.17,4.67a.77.77,0,0,0,.21.17c1.62,1.37,4.16,1.92,5.33,2.71h0C119.2,157.75,119.45,158.17,119.12,158.75Z"/><path class="cls-5" d="M99.4,156.71c-1.08.29-.16,2.29.71,1.75S101.28,156.25,99.4,156.71Z"/><path class="cls-5" d="M102.28,160.09c-1.08.29-.17,2.29.71,1.75S104.16,159.63,102.28,160.09Z"/><path class="cls-5" d="M104.07,161.21c-1.08.29-.16,2.29.71,1.75S106,160.71,104.07,161.21Z"/><path class="cls-5" d="M100.36,158.42c-1.37.33-.21,2.83.92,2.21S102.7,157.84,100.36,158.42Z"/><path class="cls-5" d="M121.79,150.67a7.87,7.87,0,0,1-4.46-.88,23.15,23.15,0,0,0-4.59-1.87h0a11.09,11.09,0,0,0-7.08.12c-2.25.92-1.34,2.5.83,1.75a4.73,4.73,0,0,1,2.5,0,5.6,5.6,0,0,1,2.46,1.25,38.17,38.17,0,0,1,1.71,3.42.77.77,0,0,0,.21.17c1.62,1.37,4.16,1.92,5.33,2.71h0a18.57,18.57,0,0,0,4.09-4Z"/><path class="cls-12" d="M40.26,68.35C31,67.44,26.84,81.52,27.05,94.53c.21,13.29-2.5,23.25,7.79,48.14,2.34,5.66,8.63,5.29,18.43-.75,0,0-1.8-24.26-2.46-47.39C50.18,73.31,43.47,68.69,40.26,68.35Z"/><path class="cls-12" d="M48.47,130s29.8,15.29,50,20.46l-.92,5.42s-30.26-.54-58.19-9.21C32.38,144.54,38.3,133.79,48.47,130Z"/><path class="cls-13" d="M59.14,55.06l-7,3.29L54,70.85l5.88,3.42S69.1,98.19,70,100.94c0,0,2.92-12.83,1.67-22.08l-2-6-.92-6.21s-5-8.63-6-9.83Z"/><path class="cls-14" d="M59.93,66.27s4.55,14.54,5.76,23.13c0,0,4.16,7.46,4.46,11.17a91.59,91.59,0,0,0,1.08-12c0-4.5-8.55-20.67-10.13-22.59S59.93,66.27,59.93,66.27Z"/><path class="cls-4" d="M54.31,35.72s-1.46,11-6.05,16c0,0-.58,3.88,4.59,5.63s7.13-.17,8-.83c0,0-.87-3.84,1.67-11S54.31,35.72,54.31,35.72Z"/><path class="cls-14" d="M53.39,60.06s5.75,5.25,6.59,6.21L61.14,66l.54-7.8-2.5-3.16Z"/><path class="cls-5" d="M75.31,17.42c1.8,8,4.76,27.72-4.58,30.8C64.31,50.35,52.64,40.05,51,33.76s-7.58-15.67,7.55-21C70.73,8.46,74.36,13,75.31,17.42Z"/><path class="cls-1" d="M72.65,1.83c1.12,2.34-.09,4.21-6.92,4.25a52.93,52.93,0,0,0-5.71.3l-2.42.25a23.42,23.42,0,0,0-7,1.79,11.93,11.93,0,0,0-3,2.12,14.26,14.26,0,0,0-3.34,7.51c-.37,2.66,2.29,4.16,2.71,6.46,2.13,12,8.5,16.25,8.5,16.25,1.09-.67.21-2.88-1.21-3.92s-2.29-1.41-3-3.83c-1-3.34.25-5.29,1.84-5.54a1.7,1.7,0,0,1,.79.08,5,5,0,0,1,1.25.62,8.11,8.11,0,0,1,1.29,1.09h0a4.68,4.68,0,0,1,1.21,3.46,11.94,11.94,0,0,1-.21,1.87l1.67.09a13.71,13.71,0,0,0,.71-4,6.71,6.71,0,0,0-.25-2.25,16.49,16.49,0,0,0-.67-1.71c-2.54-5.17-1-8.59,3-10.46,3.5-1.63,9.75-1.26,13.3-.21A4.88,4.88,0,0,0,77.56,12C78,6,72.65,1.83,72.65,1.83Z"/><path class="cls-15" d="M46.22,53.1l4-4.25s3.51,4.91,8.84,6.21l-6,9.79Z"/><path class="cls-15" d="M64.06,62.48l-4.92-7.42s1.46-.25,2-4.34l1.59,6A29.76,29.76,0,0,1,64.06,62.48Z"/><path class="cls-16" d="M46.22,53.1S66.06,75.44,70.1,100.57c0,0,1.71-27.67-7.37-43.8,0,0,7.87,8.79,10.58,15.67l-3,1.12,4.05,3A224.23,224.23,0,0,1,70,102.32s-4.67-16-14.46-23.38l3.71-4.54-7.92-1.13S52,66.06,46.22,53.1Z"/></g><g id="table"><rect class="cls-17" x="200.61" y="188.28" width="6.71" height="150.79"/><rect class="cls-18" x="102.91" y="188.26" width="99.99" height="150.79"/><rect class="cls-19" x="99.4" y="205.18" width="69.31" height="61.14"/><rect class="cls-20" x="106.53" y="186.51" width="87.11" height="23.47"/><rect class="cls-17" x="112.25" y="188.28" width="6.71" height="150.79"/><rect class="cls-18" x="14.5" y="188.26" width="99.99" height="150.79"/><rect class="cls-17" y="184.34" width="129" height="6.13"/><rect class="cls-21" x="89.9" y="184.34" width="129" height="6.13"/></g><g id="books"><path class="cls-22" d="M163.05,174v10.37H129.41l-.21-.29c-2.29-3.33-2.29-6.67,0-9.83l.21-.3h33.64Z"/><path class="cls-23" d="M131.87,184.05l.21.29h-2.67l-.21-.29c-2.29-3.33-2.29-6.67,0-9.83l.21-.3h2.67l-.21.3C129.58,177.43,129.58,180.72,131.87,184.05Z"/><path class="cls-23" d="M158.25,184.05l.21.29H155.8l-.21-.29c-2.3-3.33-2.3-6.67,0-9.83l.21-.3h2.66l-.21.3C156,177.43,156,180.72,158.25,184.05Z"/><path class="cls-24" d="M179.93,182.05a9.69,9.69,0,0,0,1.08,1.79H158.88c-2.13-3.16-2.21-6.29,0-9.33H181a9,9,0,0,0-1.08,1.62c0,.09-.09.13-.09.21a8.5,8.5,0,0,0-.54,1.71c0,.08,0,.13,0,.21a6.12,6.12,0,0,0,0,1.71.41.41,0,0,0,0,.21,10.47,10.47,0,0,0,.5,1.71S179.89,182,179.93,182.05Z"/><path class="cls-25" d="M182.43,184.34h-24l-.21-.29c-2.29-3.33-2.29-6.67,0-9.83l.21-.3h24V175H159.25a6.94,6.94,0,0,0,0,8.29h23.14v1.08Z"/><path class="cls-26" d="M179.93,176.13c0,.09-.09.13-.09.21H161.21a.11.11,0,0,1-.12-.12s.08-.13.12-.13h18.72Z"/><path class="cls-26" d="M179.3,178c0,.08,0,.12,0,.21H160.59a.12.12,0,0,1-.13-.13c0-.08.09-.12.13-.12H179.3Z"/><path class="cls-26" d="M179.3,180.13H160.59c-.08,0-.13,0-.13-.12a.21.21,0,0,1,.13-.13h18.67C179.26,180,179.3,180.05,179.3,180.13Z"/><path class="cls-26" d="M179.93,182.05H161.21a.11.11,0,0,1-.12-.12s.08-.13.12-.13h18.63A.58.58,0,0,0,179.93,182.05Z"/><path class="cls-26" d="M176.88,183h-8.5a.13.13,0,0,1-.12-.12h0a.13.13,0,0,1,.12-.13h8.5a.13.13,0,0,1,.13.13h0C177,183,177,183,176.88,183Z"/><path class="cls-27" d="M168.67,182.89s1.46.5,1.59,1.37h7.5a2.49,2.49,0,0,0-1.46-1.37Z"/><path class="cls-28" d="M167.22,163.59V174H133.58l-.21-.3c-2.29-3.33-2.29-6.66,0-9.83l.21-.29h33.64Z"/><path class="cls-29" d="M136,173.67l.21.3h-2.67l-.21-.3c-2.29-3.33-2.29-6.66,0-9.83l.21-.29h2.67l-.21.29C133.75,167,133.75,170.34,136,173.67Z"/><path class="cls-29" d="M162.42,173.67l.21.3H160l-.21-.3c-2.29-3.33-2.29-6.66,0-9.83l.21-.29h2.67l-.21.29C160.13,167,160.13,170.34,162.42,173.67Z"/><path class="cls-24" d="M184.1,171.63a9.69,9.69,0,0,0,1.08,1.79H163.05c-2.13-3.16-2.21-6.29,0-9.33h22.13a9,9,0,0,0-1.08,1.62c0,.09-.09.13-.09.21a8.5,8.5,0,0,0-.54,1.71c0,.08,0,.13,0,.21a6.12,6.12,0,0,0,0,1.71.41.41,0,0,0,0,.21,7.3,7.3,0,0,0,.54,1.71A.26.26,0,0,0,184.1,171.63Z"/><path class="cls-28" d="M186.6,174h-24l-.21-.3c-2.29-3.33-2.29-6.66,0-9.83l.21-.29h24v1H163.42a6.94,6.94,0,0,0,0,8.29h23.13V174Z"/><path class="cls-26" d="M184.1,165.71c0,.09-.09.13-.09.21H165.38a.11.11,0,0,1-.12-.12s.08-.13.12-.13H184.1Z"/><path class="cls-26" d="M183.43,167.63c0,.08,0,.13,0,.21H164.71c-.08,0-.12,0-.12-.13a.18.18,0,0,1,.12-.12h18.72Z"/><path class="cls-26" d="M183.47,169.76H164.76a.12.12,0,0,1-.13-.13.18.18,0,0,1,.13-.12h18.67A.57.57,0,0,0,183.47,169.76Z"/><path class="cls-26" d="M184.1,171.63H165.38a.11.11,0,0,1-.12-.12s.08-.13.12-.13H184A.31.31,0,0,0,184.1,171.63Z"/><path class="cls-26" d="M181.05,172.63h-8.5a.13.13,0,0,1-.12-.12h0s0-.13.12-.13h8.5a.14.14,0,0,1,.13.13h0C181.18,172.59,181.14,172.63,181.05,172.63Z"/><path class="cls-27" d="M172.84,172.51s1.46.5,1.59,1.37h7.5a2.53,2.53,0,0,0-1.46-1.37Z"/></g><g id="man_2" data-name="man 2"><path class="cls-5" d="M161.59,20.88c-.71,8-1.13,27.92,8.5,29.76,6.59,1.25,16.8-10.38,17.55-16.8s5.46-16.42-10.13-19.71C165,11.46,162,16.42,161.59,20.88Z"/><path class="cls-1" d="M242.36,327.51s.88,8.84.79,12H227.36v-.41a1.74,1.74,0,0,1,1.46-1.75c3.87-.59,6.58-5.51,7.92-11.84Z"/><path class="cls-4" d="M182.8,38.47s2.63,12.75,7,17.34c0,0-.41.91-5.21,2.66s-6.87,2.25-7.71,1.71a26.08,26.08,0,0,0-1.5-12.42C172.88,41.26,182.8,38.47,182.8,38.47Z"/><path class="cls-30" d="M193.85,20.34c-1-1.84-3.84-1.55-3.84-1.55a6,6,0,0,0,.67-7.71c-2.83-4.58-8.29-.33-8.29-.33.83-4,.16-7.83-2.71-10-2.21-1.67-5.59-.46-9.55,2.75A29.79,29.79,0,0,0,166.22,7c-2,2.25-2.84,6.13-2.67,9.17,1.87.17,6.12,1.38,7.75,3.42A10.75,10.75,0,0,1,173,29.8c-.92,3-.25,4.71.16,5.42a1.92,1.92,0,0,0,.3.41v-.79a4.32,4.32,0,0,1,.83-2.25,2,2,0,0,1,1.29-1,.68.68,0,0,1,.42.13c.79.62,1.5,2.66,1,5.46s-1.54,2-2.09,5.25a5.26,5.26,0,0,0,0,1.37,7.32,7.32,0,0,0,2.42,4.3,9.82,9.82,0,0,0,8.59-1.75c-.75-3-.46-2.92,0-4.59.55-2,4.34-7.46,6.76-12C197.1,23.09,194.68,21.92,193.85,20.34Z"/><path class="cls-1" d="M179.18,327.51s.87,8.84.79,12H158.09v-.41a1.74,1.74,0,0,1,1.46-1.75c3.87-.59,11-2.25,14-11.84Z"/><path class="cls-31" d="M178.34,162.92s-1.54,40.8,30,103.32c8,3.84,15.46,2.59,20.51-5.71,0,0-3-34.72-3.92-47-1.54-21.42,6.71-35.89-4-41.3L182,150.5Z"/><path class="cls-31" d="M207.77,264.74s17.42,44.1,26.92,64.27l9.09.21c-5.13-24-1.58-49.64-15-68.65C220.69,253.32,213.44,256.86,207.77,264.74Z"/><path class="cls-32" d="M170,167.8s-10.13,53.35-6.67,91.4c6.21,6.38,12.84,8.88,20.42,2.83,0,0,7.63-31.8,12.21-43.18s16.88-51.39,8.76-60.14Z"/><path class="cls-32" d="M163.34,259.2s3.67,48.3,7.92,70.23l8.75,2.46c1-24.55,7.25-49.69,3.71-69.82C177.68,253,170.8,253,163.34,259.2Z"/><path class="cls-33" d="M198.1,66.77c9.09,2.25,8.25,16.88,3.71,29.13-4.67,12.46-5.42,22.76-23.47,42.76-4.12,4.59-9.87,2.09-17.08-6.87,0,0,9.79-22.26,18.17-43.85C187.14,68.14,195,66,198.1,66.77Z"/><path class="cls-33" d="M168.42,124.83s-27.88,18.54-47.34,26l1.54,5.29s30-3.91,56.81-15.67C186.05,137.45,178.93,127.41,168.42,124.83Z"/><path class="cls-34" d="M186.47,55.06c11.05-1,24,22.09,31.68,46.34,10.88,34.3,13.46,80.19,13.46,80.19-25.88,2.17-47.35,1.92-64.69-.58,0,0,4-47.31,0-75C163.21,79.73,171,56.35,186.47,55.06Z"/><path class="cls-5" d="M174.3,181.22s-9.67,4.16-13.92,10S155.8,200,157,200.43c1.5.54,3.5-5.17,5-4.83s-3.33,9.58-.79,10c2,.33,2.59-7,4.21-6.5s-2.29,6.87,0,7.25,2.67-6.75,4-6.38-.5,5.05.75,5.42c.75.21,2.92-3.92,4.17-9.59S176.8,181.72,174.3,181.22Z"/><path class="cls-5" d="M169.42,183.68s-6.75,5.41-12,6.5a.39.39,0,0,0-.08.75c1.67.71,5.17,1.46,9.54-1.34C173.18,185.64,169.42,183.68,169.42,183.68Z"/><path class="cls-35" d="M184.89,64.85c8.87-3,17.54,10.29,21.25,22.76,4.13,13.92,4.17,27.88,1.21,48.84-.87,6.09-8,6.71-18.88,3a117.82,117.82,0,0,0-7.08-44C174.09,75.56,181.84,65.89,184.89,64.85Z"/><path class="cls-35" d="M189.14,133.41s-8.46,30.59-17.8,49.22l4.71,2.88s22-22.13,30.68-46.51C209.35,131.45,198.64,128.2,189.14,133.41Z"/></g><g id="chair"><polygon class="cls-36" points="225.32 339.06 221.36 338.47 235.24 256.28 239.24 256.91 225.32 339.06"/><polygon class="cls-36" points="278.67 339.06 264.74 256.91 268.75 256.28 282.67 338.47 278.67 339.06"/><polygon class="cls-16" points="189.26 339.06 185.26 338.47 199.18 256.28 203.18 256.91 189.26 339.06"/><polygon class="cls-16" points="242.61 339.06 228.69 256.91 232.69 256.28 246.57 338.47 242.61 339.06"/><path class="cls-37" d="M295.92,160.34a2.25,2.25,0,0,1,2.29,2.66l-18.42,85.9a12.21,12.21,0,0,1-12,9.51H230.44a12.21,12.21,0,0,0,12-9.51l19-88.56Z"/><path class="cls-38" d="M230.44,258.49H192.89a2,2,0,0,1-2-1.92,2,2,0,0,1,2-1.91h37.55A10.2,10.2,0,0,0,240.49,247l19-85.15a2,2,0,0,1,2.38-1.46,1.89,1.89,0,0,1,1.54,2.25l-19,85.19A14.25,14.25,0,0,1,230.44,258.49Z"/></g></g></g></svg>